<svg width="168" height="320" viewBox="0 0 168 320" fill="none" xmlns="http://www.w3.org/2000/svg">
<g clip-path="url(#clip0_0_2363)">
<rect width="768" height="3417" transform="translate(-397 -2058)" fill="#EDF3F8"/>
<g filter="url(#filter0_d_0_2363)">
<path fill-rule="evenodd" clip-rule="evenodd" d="M22.8167 0.364258H145.206C156.944 0.364258 166.459 9.47488 166.459 20.7134V299.286C166.459 310.525 156.944 319.635 145.206 319.635H22.8167C11.0789 319.635 1.56348 310.525 1.56348 299.286V20.7134C1.56348 9.47488 11.0789 0.364258 22.8167 0.364258Z" fill="#213648"/>
</g>
<path opacity="0.595562" fill-rule="evenodd" clip-rule="evenodd" d="M145.679 0H22.2705C16.5089 0.351332 11.1952 2.98044 6.32947 7.88732C9.4587 5.15577 15.04 1.50052 22.4191 1.50052C22.4191 1.50052 140.611 1.50052 145.531 1.50052C152.91 1.50052 158.491 5.15577 161.62 7.88732C156.755 2.98044 151.441 0.351332 145.679 0Z" fill="url(#paint0_linear_0_2363)" fill-opacity="0.65"/>
<path opacity="0.75" fill-rule="evenodd" clip-rule="evenodd" d="M163.12 296.109V22.3885C163.12 15.0443 160.42 12.3294 158.81 10.5861C157.2 8.84276 157.132 7.95359 159.445 9.26983C161.759 10.5861 166.386 14.4197 166.386 22.3885V296.109C166.386 304.078 161.759 307.912 159.445 309.228C157.132 310.544 157.2 309.655 158.81 307.912C160.42 306.169 163.12 303.454 163.12 296.109Z" fill="url(#paint1_linear_0_2363)"/>
<path opacity="0.75" fill-rule="evenodd" clip-rule="evenodd" d="M4.82999 296.109V22.3885C4.82999 15.0443 7.52915 12.3294 9.13934 10.5861C10.7495 8.84276 10.8181 7.95359 8.50449 9.26983C6.19093 10.5861 1.56344 14.4197 1.56344 22.3885V296.109C1.56344 304.078 6.19093 307.912 8.50449 309.228C10.8181 310.544 10.7495 309.655 9.13934 307.912C7.52915 306.169 4.82999 303.454 4.82999 296.109Z" fill="url(#paint2_linear_0_2363)"/>
<path fill-rule="evenodd" clip-rule="evenodd" d="M-0.0799561 66.5847C-0.0799561 65.7074 0.631308 64.9961 1.5087 64.9961C2.38609 64.9961 3.09735 65.7074 3.09735 66.5847V104.592C3.09735 105.469 2.38609 106.181 1.5087 106.181C0.631308 106.181 -0.0799561 105.469 -0.0799561 104.592V66.5847Z" fill="#2E423C"/>
<path fill-rule="evenodd" clip-rule="evenodd" d="M164.743 100.176C164.743 99.2987 165.454 98.5874 166.331 98.5874C167.209 98.5874 167.92 99.2987 167.92 100.176V127.047C167.92 127.924 167.209 128.635 166.331 128.635C165.454 128.635 164.743 127.924 164.743 127.047V100.176Z" fill="#2E423C"/>
<path fill-rule="evenodd" clip-rule="evenodd" d="M69.4728 7.96436L21.8528 7.96436C14.7459 7.96436 9.56763 12.8049 9.56763 19.1269V289.456C9.56763 297.699 17.5691 305.003 26.6167 305.003H141.39C150.105 305.003 158.439 297.643 158.439 289.456V19.8576C158.439 12.2802 152.814 8.00942 146.154 7.96436L97.7788 7.96436C97.5955 7.9944 94.2724 9.36068 92.8679 12.8049C91.4635 16.2491 88.6375 18.9947 85.5435 18.9947H81.9499C80.4792 18.9947 76.6073 17.5677 74.6467 12.8049C72.6861 8.04207 69.6561 7.9944 69.4728 7.96436Z" fill="#36536B"/>
<mask id="mask0_0_2363" style="mask-type:luminance" maskUnits="userSpaceOnUse" x="9" y="7" width="150" height="299">
<path fill-rule="evenodd" clip-rule="evenodd" d="M69.4728 7.96436L21.8528 7.96436C14.7459 7.96436 9.56763 12.8049 9.56763 19.1269V289.456C9.56763 297.699 17.5691 305.003 26.6167 305.003H141.39C150.105 305.003 158.439 297.643 158.439 289.456V19.8576C158.439 12.2802 152.814 8.00942 146.154 7.96436L97.7788 7.96436C97.5955 7.9944 94.2724 9.36068 92.8679 12.8049C91.4635 16.2491 88.6375 18.9947 85.5435 18.9947H81.9499C80.4792 18.9947 76.6073 17.5677 74.6467 12.8049C72.6861 8.04207 69.6561 7.9944 69.4728 7.96436Z" fill="white"/>
</mask>
<g mask="url(#mask0_0_2363)">
</g>
<g filter="url(#filter1_d_0_2363)">
<rect x="27.4401" y="90.8799" width="112.64" height="122.24" rx="5" fill="#FBFCFE"/>
</g>
<path fill-rule="evenodd" clip-rule="evenodd" d="M96.6477 166.452L96.6477 167.194H95.5994L95.5993 166.453L95.5806 166.451C95.1101 166.393 94.7114 166.259 94.3847 166.048C93.9354 165.759 93.6775 165.311 93.6109 164.707L94.8756 164.682C94.9421 164.956 95.0857 165.165 95.3061 165.308C95.5266 165.451 95.8033 165.522 96.1361 165.522C96.3357 165.522 96.5125 165.49 96.6665 165.424C96.8204 165.359 96.9417 165.27 97.0305 165.158C97.1192 165.046 97.1636 164.918 97.1636 164.773C97.1636 164.551 97.0929 164.386 96.9514 164.276C96.81 164.167 96.5923 164.079 96.2983 164.012L95.3124 163.8C94.8548 163.708 94.488 163.526 94.2121 163.253C93.9361 162.98 93.7954 162.613 93.7898 162.153C93.787 161.775 93.889 161.449 94.0956 161.173C94.3022 160.897 94.5837 160.684 94.9401 160.534L95.0955 160.475C95.2535 160.42 95.4196 160.378 95.5938 160.351L95.6198 160.348L95.6202 159.523H96.6727L96.6726 160.353L96.7762 160.371C96.9727 160.411 97.1539 160.472 97.3196 160.553C97.651 160.715 97.9061 160.933 98.085 161.206C98.2639 161.479 98.3506 161.781 98.345 162.111L97.1178 162.132C97.079 161.866 96.9902 161.656 96.8516 161.504C96.7129 161.351 96.4827 161.275 96.161 161.275C95.9946 161.275 95.8462 161.293 95.7159 161.329C95.5856 161.365 95.4732 161.416 95.3789 161.481C95.2846 161.546 95.2132 161.623 95.1647 161.712C95.1162 161.8 95.0919 161.9 95.0919 162.011C95.0919 162.186 95.1508 162.324 95.2687 162.425C95.3866 162.526 95.6091 162.62 95.9364 162.706L96.9057 162.943C97.452 163.073 97.8465 163.297 98.0892 163.613C98.3318 163.929 98.4532 164.313 98.4532 164.765C98.4532 165.112 98.3582 165.414 98.1682 165.672C97.9782 165.93 97.7099 166.13 97.3633 166.271L97.211 166.327C97.0549 166.379 96.8877 166.418 96.7092 166.444L96.6477 166.452ZM49.7301 164.195V166.4H48.8233V160.385H50.9074C51.3373 160.385 51.7221 160.458 52.0618 160.605C52.4016 160.752 52.6692 160.968 52.8647 161.254C53.0602 161.54 53.158 161.89 53.158 162.306C53.158 162.706 53.0685 163.046 52.8897 163.328C52.7108 163.609 52.4612 163.824 52.1409 163.973C51.8205 164.121 51.4496 164.195 51.0281 164.195H49.7301ZM49.726 163.467H51.0031C51.3858 163.467 51.6978 163.357 51.9391 163.136C52.1804 162.916 52.301 162.623 52.301 162.257C52.301 161.885 52.1762 161.6 51.9266 161.402C51.677 161.203 51.3581 161.104 50.9698 161.104H49.726V163.467ZM55.052 166.483C55.3599 166.483 55.6365 166.42 55.882 166.294C56.1274 166.168 56.3305 165.94 56.4914 165.61L56.5621 166.4H57.3151V163.392C57.3151 163.098 57.2534 162.849 57.13 162.643C57.0065 162.438 56.8187 162.282 56.5663 162.175C56.3139 162.069 55.9922 162.015 55.6012 162.015C55.2489 162.015 54.9425 162.065 54.6818 162.165C54.4211 162.265 54.2166 162.413 54.0682 162.608C53.9198 162.804 53.8373 163.044 53.8207 163.33H54.5944C54.6499 163.089 54.7671 162.915 54.946 162.81C55.1248 162.704 55.3294 162.652 55.5596 162.652C55.8646 162.649 56.0907 162.718 56.2376 162.86C56.3846 163.001 56.4581 163.195 56.4581 163.442V163.754L55.7509 163.775C55.0104 163.789 54.471 163.914 54.1327 164.149C53.7943 164.385 53.6252 164.741 53.6252 165.218C53.6252 165.485 53.6862 165.712 53.8082 165.901C53.9302 166.089 54.0987 166.234 54.3136 166.333C54.5286 166.433 54.7747 166.483 55.052 166.483ZM54.7234 165.67C54.8843 165.799 55.0867 165.863 55.3308 165.863C55.4667 165.863 55.6012 165.839 55.7343 165.79C55.8674 165.742 55.988 165.675 56.0962 165.591C56.2044 165.506 56.291 165.411 56.3562 165.306C56.4214 165.2 56.4553 165.092 56.4581 164.981V164.27L55.8757 164.282C55.579 164.285 55.3273 164.316 55.1207 164.374C54.9141 164.432 54.756 164.522 54.6464 164.644C54.5369 164.766 54.4821 164.929 54.4821 165.131C54.4821 165.361 54.5625 165.541 54.7234 165.67ZM58.8493 167.773C59.0545 167.773 59.2445 167.741 59.4192 167.677C59.5939 167.613 59.7541 167.5 59.8997 167.336C60.0453 167.172 60.1791 166.941 60.3011 166.641L62.0941 162.098H61.2205L60.0224 165.277L58.816 162.098H57.9258L59.6023 166.275L59.4691 166.637C59.4525 166.684 59.4275 166.735 59.3943 166.791C59.361 166.846 59.3131 166.898 59.2507 166.947C59.1883 166.995 59.1038 167.034 58.997 167.061C58.8902 167.089 58.7536 167.099 58.5872 167.09L58.1504 167.082V167.656L58.3023 167.714C58.4035 167.753 58.5858 167.773 58.8493 167.773ZM63.6902 163.559V166.4H62.8V162.098H63.6652V162.718C63.7873 162.53 63.9537 162.365 64.1644 162.225C64.3752 162.085 64.647 162.015 64.9798 162.015C65.1351 162.015 65.2925 162.042 65.452 162.094C65.6114 162.147 65.7584 162.225 65.8929 162.329C66.0274 162.433 66.1335 162.562 66.2112 162.714C66.347 162.509 66.5287 162.341 66.7561 162.211C66.9835 162.08 67.2387 162.015 67.5216 162.015C67.6741 162.015 67.8322 162.04 67.9958 162.088C68.1594 162.137 68.3113 162.218 68.4513 162.334C68.5914 162.449 68.7051 162.607 68.7924 162.81C68.8798 163.012 68.9235 163.269 68.9235 163.579V166.4H68.0291V163.675C68.0291 163.439 67.9896 163.255 67.9105 163.122C67.8315 162.989 67.7289 162.895 67.6027 162.841C67.4765 162.787 67.3427 162.76 67.2012 162.76C67.0737 162.76 66.9405 162.785 66.8019 162.835C66.6632 162.885 66.5453 162.968 66.4483 163.084C66.3512 163.201 66.3027 163.359 66.3027 163.559V166.4H65.4124V163.484C65.4124 163.326 65.3701 163.193 65.2856 163.084C65.201 162.976 65.0956 162.895 64.9694 162.841C64.8432 162.787 64.7177 162.76 64.5929 162.76C64.4543 162.76 64.3156 162.788 64.1769 162.843C64.0382 162.899 63.9225 162.985 63.8296 163.103C63.7367 163.221 63.6902 163.373 63.6902 163.559ZM71.8435 166.483C72.1292 166.483 72.4023 166.431 72.663 166.327C72.9237 166.223 73.1463 166.069 73.3307 165.863C73.5151 165.658 73.6323 165.408 73.6822 165.114H72.8585C72.8003 165.345 72.6776 165.518 72.4904 165.634C72.3032 165.751 72.082 165.809 71.8269 165.809C71.5717 165.809 71.3582 165.75 71.1862 165.632C71.0143 165.515 70.886 165.354 70.8014 165.15C70.7168 164.946 70.6745 164.715 70.6745 164.457H73.703V164.162C73.703 163.726 73.6295 163.349 73.4825 163.028C73.3356 162.708 73.1199 162.459 72.8357 162.282C72.5514 162.104 72.2013 162.015 71.7853 162.015C71.3637 162.015 71.0032 162.112 70.7037 162.306C70.4041 162.501 70.1753 162.769 70.0173 163.111C69.8592 163.454 69.7801 163.848 69.7801 164.295C69.7801 164.747 69.8668 165.137 70.0401 165.464C70.2135 165.791 70.4554 166.043 70.7661 166.219C71.0767 166.395 71.4358 166.483 71.8435 166.483ZM70.6745 163.879H72.8544C72.8544 163.654 72.8156 163.45 72.7379 163.265C72.6602 163.081 72.5417 162.935 72.3822 162.829C72.2228 162.722 72.0224 162.668 71.7811 162.668C71.5343 162.668 71.329 162.728 71.1654 162.847C71.0018 162.967 70.8791 163.119 70.7973 163.305C70.7154 163.491 70.6745 163.682 70.6745 163.879ZM75.523 166.4V163.559C75.523 163.381 75.5715 163.233 75.6686 163.116C75.7656 162.998 75.8932 162.91 76.0513 162.851C76.2094 162.793 76.3758 162.764 76.5505 162.764C76.8112 162.764 77.024 162.839 77.1891 162.989C77.3541 163.138 77.4366 163.367 77.4366 163.675V166.4H78.3268V163.579C78.3268 163.222 78.2575 162.93 78.1188 162.704C77.9801 162.478 77.7964 162.311 77.5676 162.205C77.3388 162.098 77.0899 162.044 76.8209 162.044C76.5935 162.044 76.3931 162.076 76.2198 162.14C76.0464 162.204 75.9008 162.287 75.783 162.39C75.6651 162.492 75.5715 162.602 75.5022 162.718V162.098H74.6327V166.4H75.523ZM81.2879 166.404C81.1784 166.421 81.0376 166.429 80.8657 166.429C80.5467 166.429 80.2992 166.386 80.1231 166.3C79.947 166.214 79.825 166.09 79.757 165.928C79.6891 165.766 79.6551 165.569 79.6551 165.339V162.739H78.9562V162.098H79.6801L79.9006 160.834H80.5454V162.094H81.5105V162.739H80.5454L80.5495 165.306C80.5495 165.447 80.5641 165.551 80.5932 165.616C80.6223 165.681 80.6722 165.723 80.743 165.741C80.8137 165.759 80.91 165.768 81.0321 165.768H81.5354V166.346C81.48 166.368 81.3975 166.387 81.2879 166.404ZM85.9619 166.483C86.3917 166.483 86.7543 166.39 87.0497 166.202C87.3451 166.015 87.5697 165.755 87.7236 165.422C87.8775 165.09 87.9545 164.705 87.9545 164.27C87.9545 163.793 87.8727 163.386 87.7091 163.049C87.5454 162.712 87.3152 162.456 87.0185 162.279C86.7218 162.103 86.3709 162.015 85.966 162.015C85.5417 162.015 85.1798 162.109 84.8803 162.296C84.5807 162.483 84.3526 162.746 84.1959 163.084C84.0392 163.423 83.9609 163.818 83.9609 164.27C83.9609 164.739 84.0434 165.138 84.2084 165.468C84.3734 165.798 84.6064 166.05 84.9073 166.223C85.2082 166.396 85.5597 166.483 85.9619 166.483ZM85.3129 165.585C85.4793 165.726 85.697 165.797 85.966 165.797C86.2101 165.797 86.4146 165.732 86.5796 165.603C86.7446 165.474 86.8687 165.293 86.9519 165.058C87.0351 164.824 87.0767 164.553 87.0767 164.245C87.0767 163.959 87.04 163.699 86.9665 163.465C86.893 163.231 86.7744 163.044 86.6108 162.906C86.4472 162.767 86.2323 162.698 85.966 162.698C85.7164 162.698 85.5084 162.761 85.342 162.887C85.1756 163.013 85.0501 163.192 84.9655 163.423C84.881 163.655 84.8387 163.929 84.8387 164.245C84.8387 164.525 84.8761 164.783 84.951 165.019C85.0259 165.255 85.1465 165.443 85.3129 165.585ZM90.1639 166.4V162.739H91.1707V162.098H90.1473V161.549C90.1473 161.364 90.1785 161.226 90.2409 161.135C90.3033 161.045 90.4205 161 90.5924 161H91.2123L91.2081 160.385H90.3511C89.9962 160.385 89.7271 160.475 89.5441 160.657C89.3611 160.839 89.2695 161.101 89.2695 161.445V162.098H88.3918V162.739H89.2695V166.4H90.1639ZM101.372 166.491C101.899 166.491 102.352 166.373 102.732 166.136C103.112 165.899 103.404 165.541 103.608 165.062C103.812 164.584 103.914 163.986 103.914 163.267C103.914 162.666 103.815 162.142 103.616 161.697C103.418 161.252 103.134 160.908 102.763 160.665C102.393 160.423 101.953 160.301 101.443 160.301C100.988 160.301 100.591 160.389 100.253 160.563C99.9145 160.738 99.651 160.979 99.4625 161.287C99.2739 161.595 99.1796 161.946 99.1796 162.34C99.1796 162.731 99.269 163.068 99.4479 163.353C99.6268 163.637 99.8736 163.856 100.188 164.01C100.503 164.164 100.864 164.241 101.272 164.241C101.497 164.241 101.701 164.211 101.884 164.151C102.067 164.092 102.227 164.007 102.364 163.898C102.501 163.788 102.609 163.66 102.686 163.513C102.72 163.993 102.682 164.381 102.572 164.678C102.463 164.974 102.299 165.191 102.081 165.327C101.863 165.463 101.61 165.53 101.322 165.53C101.061 165.53 100.845 165.458 100.673 165.312C100.501 165.166 100.39 164.977 100.34 164.744H99.1837C99.2087 165.096 99.3238 165.404 99.529 165.666C99.7342 165.928 99.9991 166.131 100.324 166.275C100.648 166.419 100.997 166.491 101.372 166.491ZM100.76 163.016C100.943 163.189 101.183 163.276 101.48 163.276C101.649 163.276 101.814 163.238 101.973 163.161C102.132 163.085 102.264 162.989 102.366 162.872C102.469 162.756 102.52 162.635 102.52 162.51C102.523 162.241 102.481 162.01 102.393 161.818C102.306 161.625 102.184 161.477 102.027 161.375C101.87 161.272 101.688 161.221 101.48 161.221C101.289 161.221 101.118 161.265 100.968 161.354C100.819 161.443 100.701 161.567 100.615 161.728C100.529 161.889 100.486 162.075 100.486 162.286C100.486 162.599 100.577 162.842 100.76 163.016ZM109.104 166.4V165.377H106.038V165.322C106.038 165.139 106.093 164.983 106.204 164.852C106.315 164.722 106.462 164.605 106.645 164.501C106.828 164.397 107.029 164.295 107.246 164.195C107.464 164.095 107.682 163.987 107.901 163.871C108.121 163.754 108.322 163.618 108.505 163.463C108.688 163.308 108.835 163.12 108.946 162.901C109.057 162.682 109.112 162.422 109.112 162.119C109.112 161.756 109.023 161.438 108.846 161.167C108.668 160.895 108.417 160.683 108.091 160.53C107.765 160.378 107.377 160.301 106.928 160.301C106.404 160.301 105.968 160.393 105.622 160.576C105.275 160.759 105.015 161.006 104.842 161.318C104.668 161.63 104.579 161.978 104.573 162.361H105.734C105.784 162.008 105.914 161.745 106.125 161.57C106.336 161.395 106.592 161.308 106.895 161.308C107.186 161.308 107.415 161.384 107.583 161.537C107.751 161.689 107.835 161.886 107.835 162.128C107.835 162.316 107.778 162.48 107.664 162.618C107.551 162.757 107.4 162.883 107.213 162.995C107.026 163.107 106.82 163.219 106.595 163.33C106.371 163.441 106.147 163.559 105.923 163.683C105.7 163.808 105.495 163.953 105.308 164.118C105.121 164.283 104.97 164.477 104.856 164.701C104.743 164.924 104.686 165.188 104.686 165.493V166.4H109.104ZM113.824 165.695C113.416 166.226 112.849 166.491 112.122 166.491C111.393 166.491 110.824 166.227 110.415 165.697C110.006 165.167 109.801 164.405 109.801 163.409C109.801 162.743 109.895 162.179 110.084 161.716C110.272 161.253 110.54 160.901 110.887 160.661C111.233 160.421 111.645 160.301 112.122 160.301C112.838 160.301 113.402 160.568 113.815 161.102C114.229 161.636 114.435 162.404 114.435 163.405C114.435 164.4 114.231 165.164 113.824 165.695ZM112.122 165.497C111.762 165.497 111.496 165.336 111.324 165.015C111.152 164.693 111.066 164.158 111.066 163.409C111.066 162.646 111.152 162.097 111.326 161.762C111.499 161.426 111.763 161.258 112.118 161.258C112.473 161.258 112.735 161.425 112.904 161.757C113.074 162.09 113.158 162.641 113.158 163.409C113.158 164.16 113.075 164.696 112.909 165.017C112.742 165.337 112.48 165.497 112.122 165.497ZM118.997 165.069V166.4H117.828L117.832 165.069H115.062V164.07L117.803 160.385H118.997V164.05H119.925V165.069H118.997ZM117.832 164.05H116.185L117.832 161.845V164.05ZM53.1508 171.909V172.786H52.2564V171.909H53.1508ZM53.1342 177.92V173.618H52.2772V177.92H53.1342ZM56.8342 177.847C56.5804 177.951 56.2788 178.003 55.9294 178.003C55.6299 178.003 55.3491 177.956 55.087 177.862C54.8249 177.767 54.6058 177.619 54.4297 177.417C54.2536 177.214 54.1434 176.955 54.099 176.639H54.8936C54.9296 176.802 54.9983 176.937 55.0995 177.044C55.2007 177.151 55.3227 177.23 55.4656 177.281C55.6084 177.333 55.7616 177.358 55.9252 177.358C56.197 177.358 56.4168 177.309 56.5846 177.211C56.7524 177.112 56.8363 176.96 56.8363 176.755C56.8363 176.608 56.7912 176.49 56.7011 176.402C56.611 176.313 56.4688 176.248 56.2747 176.206L55.4177 176.002C55.0627 175.919 54.7785 175.787 54.5649 175.605C54.3514 175.423 54.2432 175.169 54.2404 174.842C54.2404 174.589 54.3035 174.365 54.4297 174.168C54.5559 173.971 54.7438 173.816 54.9934 173.704C55.243 173.591 55.5536 173.535 55.9252 173.535C56.4106 173.535 56.8002 173.643 57.0942 173.86C57.3882 174.076 57.5407 174.389 57.5518 174.8H56.7822C56.7545 174.603 56.665 174.448 56.5139 174.336C56.3627 174.224 56.1638 174.168 55.9169 174.168C55.6618 174.168 55.4524 174.218 55.2888 174.319C55.1251 174.421 55.0433 174.575 55.0433 174.783C55.0433 174.925 55.103 175.036 55.2222 175.118C55.3415 175.2 55.5203 175.267 55.7588 175.32L56.5742 175.524C56.785 175.579 56.9583 175.652 57.0942 175.742C57.2301 175.832 57.3369 175.931 57.4145 176.04C57.4922 176.148 57.547 176.26 57.5788 176.377C57.6107 176.493 57.6267 176.603 57.6267 176.705C57.6267 176.977 57.558 177.209 57.4208 177.402C57.2835 177.595 57.088 177.743 56.8342 177.847ZM62.0086 178.003C62.3248 178.003 62.6084 177.942 62.8594 177.82C63.1104 177.698 63.3142 177.527 63.4709 177.308C63.6276 177.089 63.7212 176.836 63.7517 176.547H62.9946C62.9724 176.677 62.9211 176.804 62.8406 176.926C62.7602 177.048 62.6514 177.148 62.5141 177.225C62.3768 177.303 62.2153 177.342 62.0294 177.342C61.644 177.342 61.3507 177.2 61.1496 176.917C60.9485 176.634 60.848 176.255 60.848 175.778C60.848 175.256 60.9562 174.869 61.1725 174.617C61.3888 174.365 61.6689 174.238 62.0128 174.238C62.2014 174.238 62.3643 174.275 62.5016 174.349C62.6389 174.422 62.7484 174.52 62.8302 174.642C62.9121 174.764 62.9654 174.896 62.9904 175.037H63.76C63.7267 174.738 63.6324 174.475 63.4771 174.251C63.3218 174.026 63.1187 173.851 62.8677 173.725C62.6167 173.598 62.3304 173.535 62.0086 173.535C61.5899 173.535 61.23 173.63 60.9291 173.818C60.6282 174.007 60.3987 174.27 60.2406 174.609C60.0826 174.947 60.0035 175.339 60.0035 175.786C60.0035 176.26 60.0888 176.663 60.2594 176.994C60.4299 177.326 60.6664 177.577 60.9686 177.747C61.2709 177.918 61.6176 178.003 62.0086 178.003ZM67.5188 177.722C67.2234 177.91 66.8608 178.003 66.4309 178.003C66.0288 178.003 65.6773 177.916 65.3764 177.743C65.0755 177.57 64.8425 177.318 64.6775 176.988C64.5125 176.658 64.43 176.259 64.43 175.79C64.43 175.338 64.5083 174.943 64.665 174.604C64.8217 174.266 65.0498 174.003 65.3493 173.816C65.6489 173.629 66.0108 173.535 66.4351 173.535C66.84 173.535 67.1908 173.623 67.4876 173.799C67.7843 173.976 68.0145 174.232 68.1781 174.569C68.3418 174.906 68.4236 175.313 68.4236 175.79C68.4236 176.225 68.3466 176.61 68.1927 176.942C68.0388 177.275 67.8141 177.535 67.5188 177.722ZM66.4351 177.317C66.1661 177.317 65.9484 177.246 65.782 177.105C65.6156 176.963 65.4949 176.775 65.4201 176.539C65.3452 176.303 65.3077 176.045 65.3077 175.765C65.3077 175.449 65.35 175.175 65.4346 174.943C65.5192 174.712 65.6447 174.533 65.8111 174.407C65.9775 174.281 66.1855 174.218 66.4351 174.218C66.7013 174.218 66.9163 174.287 67.0799 174.426C67.2435 174.564 67.3621 174.751 67.4356 174.985C67.5091 175.219 67.5458 175.479 67.5458 175.765C67.5458 176.073 67.5042 176.344 67.421 176.578C67.3378 176.813 67.2137 176.994 67.0487 177.123C66.8837 177.252 66.6792 177.317 66.4351 177.317ZM70.2004 175.079V177.92H69.3101V173.618H70.1754V174.238C70.2975 174.05 70.4639 173.885 70.6746 173.745C70.8854 173.605 71.1572 173.535 71.49 173.535C71.6453 173.535 71.8027 173.562 71.9621 173.614C72.1216 173.667 72.2686 173.745 72.4031 173.849C72.5376 173.953 72.6437 174.082 72.7213 174.234C72.8572 174.029 73.0389 173.861 73.2663 173.731C73.4937 173.6 73.7489 173.535 74.0317 173.535C74.1843 173.535 74.3424 173.56 74.506 173.608C74.6696 173.657 74.8215 173.738 74.9615 173.854C75.1016 173.969 75.2153 174.127 75.3026 174.33C75.39 174.532 75.4337 174.789 75.4337 175.099V177.92H74.5393V175.195C74.5393 174.959 74.4997 174.775 74.4207 174.642C74.3417 174.509 74.2391 174.415 74.1129 174.361C73.9867 174.307 73.8529 174.28 73.7114 174.28C73.5839 174.28 73.4507 174.305 73.3121 174.355C73.1734 174.405 73.0555 174.488 72.9585 174.604C72.8614 174.721 72.8129 174.879 72.8129 175.079V177.92H71.9226V175.004C71.9226 174.846 71.8803 174.713 71.7957 174.604C71.7112 174.496 71.6058 174.415 71.4796 174.361C71.3534 174.307 71.2279 174.28 71.1031 174.28C70.9644 174.28 70.8258 174.308 70.6871 174.363C70.5484 174.419 70.4327 174.505 70.3397 174.623C70.2468 174.741 70.2004 174.893 70.2004 175.079ZM77.4052 179.259V177.179C77.4551 177.274 77.5182 177.369 77.5945 177.464C77.6708 177.56 77.763 177.649 77.8711 177.731C77.9793 177.812 78.1041 177.878 78.2455 177.928C78.387 177.978 78.5464 178.003 78.7239 178.003C79.0928 178.003 79.4117 177.916 79.6807 177.743C79.9497 177.57 80.157 177.314 80.3026 176.976C80.4482 176.637 80.521 176.218 80.521 175.719C80.521 175.223 80.4482 174.813 80.3026 174.49C80.157 174.167 79.9546 173.927 79.6953 173.77C79.436 173.614 79.1372 173.535 78.7988 173.535C78.6185 173.535 78.4542 173.559 78.3058 173.606C78.1575 173.653 78.0257 173.716 77.9106 173.795C77.7956 173.874 77.6964 173.96 77.6132 174.053C77.53 174.146 77.4621 174.24 77.4094 174.334L77.401 173.618H76.5108V179.259H77.4052ZM77.9086 177.109C78.0777 177.253 78.2871 177.325 78.5367 177.325C78.8668 177.325 79.1378 177.197 79.35 176.94C79.5622 176.684 79.6682 176.282 79.6682 175.736C79.6682 175.267 79.5705 174.896 79.375 174.623C79.1794 174.35 78.9 174.213 78.5367 174.213C78.1623 174.213 77.8794 174.355 77.6881 174.64C77.4967 174.924 77.401 175.289 77.401 175.736C77.401 176.027 77.4433 176.293 77.5279 176.533C77.6125 176.772 77.7394 176.965 77.9086 177.109ZM82.5742 177.978C82.638 177.978 82.7067 177.971 82.7801 177.957C82.8536 177.943 82.9251 177.925 82.9944 177.903V177.338L82.7697 177.329C82.6061 177.315 82.4848 177.256 82.4057 177.15C82.3267 177.045 82.2872 176.892 82.2872 176.693V171.738H81.4094V176.784C81.4094 176.937 81.4226 177.084 81.4489 177.227C81.4753 177.37 81.5287 177.498 81.6091 177.61C81.6895 177.722 81.8067 177.812 81.9606 177.878C82.1145 177.945 82.3191 177.978 82.5742 177.978ZM86.4794 177.847C86.2187 177.951 85.9455 178.003 85.6599 178.003C85.2522 178.003 84.893 177.915 84.5824 177.739C84.2718 177.563 84.0298 177.311 83.8565 176.984C83.6832 176.657 83.5965 176.267 83.5965 175.815C83.5965 175.368 83.6755 174.974 83.8336 174.631C83.9917 174.289 84.2205 174.021 84.52 173.826C84.8195 173.632 85.1801 173.535 85.6016 173.535C86.0176 173.535 86.3678 173.624 86.652 173.802C86.9363 173.979 87.1519 174.228 87.2989 174.548C87.4459 174.869 87.5194 175.246 87.5194 175.682V175.977H84.4909C84.4909 176.235 84.5332 176.466 84.6178 176.67C84.7024 176.874 84.8306 177.035 85.0026 177.152C85.1745 177.27 85.3881 177.329 85.6432 177.329C85.8984 177.329 86.1195 177.271 86.3067 177.154C86.4939 177.038 86.6167 176.865 86.6749 176.634H87.4986C87.4487 176.928 87.3315 177.178 87.1471 177.383C86.9626 177.589 86.7401 177.743 86.4794 177.847ZM86.6707 175.399H84.4909C84.4909 175.202 84.5318 175.011 84.6136 174.825C84.6954 174.639 84.8182 174.487 84.9818 174.367C85.1454 174.248 85.3506 174.188 85.5975 174.188C85.8387 174.188 86.0391 174.242 86.1986 174.349C86.3581 174.455 86.4766 174.601 86.5543 174.785C86.6319 174.97 86.6707 175.174 86.6707 175.399ZM90.3981 177.924C90.2885 177.941 90.1478 177.949 89.9758 177.949C89.6569 177.949 89.4094 177.906 89.2333 177.82C89.0572 177.734 88.9351 177.61 88.8672 177.448C88.7992 177.286 88.7653 177.089 88.7653 176.859V174.259H88.0664V173.618H88.7902L89.0107 172.354H89.6555V173.614H90.6206V174.259H89.6555L89.6597 176.826C89.6597 176.967 89.6742 177.071 89.7033 177.136C89.7325 177.201 89.7824 177.243 89.8531 177.261C89.9238 177.279 90.0202 177.288 90.1422 177.288H90.6456V177.866C90.5901 177.888 90.5076 177.907 90.3981 177.924ZM93.3256 178.003C93.6113 178.003 93.8845 177.951 94.1451 177.847C94.4058 177.743 94.6284 177.589 94.8128 177.383C94.9973 177.178 95.1144 176.928 95.1643 176.634H94.3407C94.2824 176.865 94.1597 177.038 93.9725 177.154C93.7853 177.271 93.5641 177.329 93.309 177.329C93.0538 177.329 92.8403 177.27 92.6683 177.152C92.4964 177.035 92.3681 176.874 92.2835 176.67C92.199 176.466 92.1567 176.235 92.1567 175.977H95.1851V175.682C95.1851 175.246 95.1117 174.869 94.9647 174.548C94.8177 174.228 94.6021 173.979 94.3178 173.802C94.0335 173.624 93.6834 173.535 93.2674 173.535C92.8458 173.535 92.4853 173.632 92.1858 173.826C91.8863 174.021 91.6575 174.289 91.4994 174.631C91.3413 174.974 91.2623 175.368 91.2623 175.815C91.2623 176.267 91.3489 176.657 91.5223 176.984C91.6956 177.311 91.9376 177.563 92.2482 177.739C92.5588 177.915 92.9179 178.003 93.3256 178.003ZM92.1567 175.399H94.3365C94.3365 175.174 94.2977 174.97 94.22 174.785C94.1424 174.601 94.0238 174.455 93.8643 174.349C93.7049 174.242 93.5045 174.188 93.2632 174.188C93.0164 174.188 92.8112 174.248 92.6475 174.367C92.4839 174.487 92.3612 174.639 92.2794 174.825C92.1976 175.011 92.1567 175.202 92.1567 175.399ZM97.6832 178.003C97.9217 178.003 98.1255 177.971 98.2947 177.907C98.4639 177.844 98.6032 177.762 98.7128 177.662C98.8223 177.562 98.909 177.457 98.9728 177.346C99.0366 177.235 99.0837 177.132 99.1142 177.038L99.2141 177.92H99.8797V171.738H98.9853V174.272C98.9437 174.197 98.8847 174.116 98.8085 174.03C98.7322 173.944 98.6365 173.864 98.5214 173.789C98.4063 173.714 98.2732 173.653 98.1221 173.606C97.9709 173.559 97.7983 173.535 97.6041 173.535C97.2214 173.535 96.9004 173.627 96.6411 173.81C96.3818 173.993 96.187 174.25 96.0566 174.582C95.9263 174.913 95.8611 175.302 95.8611 175.748C95.8611 176.478 96.0233 177.036 96.3478 177.423C96.6723 177.81 97.1174 178.003 97.6832 178.003ZM97.0322 176.917C97.2221 177.195 97.496 177.333 97.8537 177.333C98.2531 177.333 98.5415 177.208 98.719 176.957C98.8965 176.706 98.9853 176.293 98.9853 175.719C98.9825 175.395 98.9423 175.12 98.8646 174.896C98.787 174.671 98.667 174.501 98.5048 174.386C98.3425 174.271 98.1297 174.213 97.8662 174.213C97.5362 174.213 97.2672 174.332 97.0592 174.569C96.8512 174.806 96.7472 175.19 96.7472 175.719C96.7472 176.241 96.8422 176.64 97.0322 176.917ZM104.043 178.003C104.351 178.003 104.627 177.94 104.873 177.814C105.118 177.688 105.321 177.46 105.482 177.13L105.553 177.92H106.306V174.912C106.306 174.618 106.244 174.369 106.121 174.163C105.997 173.958 105.81 173.802 105.557 173.695C105.305 173.589 104.983 173.535 104.592 173.535C104.24 173.535 103.933 173.585 103.673 173.685C103.412 173.785 103.208 173.933 103.059 174.128C102.911 174.324 102.828 174.564 102.812 174.85H103.585C103.641 174.609 103.758 174.435 103.937 174.33C104.116 174.224 104.32 174.172 104.55 174.172C104.856 174.169 105.082 174.238 105.229 174.38C105.376 174.521 105.449 174.715 105.449 174.962V175.274L104.742 175.295C104.001 175.309 103.462 175.434 103.124 175.669C102.785 175.905 102.616 176.261 102.616 176.738C102.616 177.005 102.677 177.232 102.799 177.421C102.921 177.609 103.09 177.754 103.305 177.853C103.52 177.953 103.766 178.003 104.043 178.003ZM103.714 177.19C103.875 177.319 104.078 177.383 104.322 177.383C104.458 177.383 104.592 177.359 104.725 177.31C104.858 177.262 104.979 177.195 105.087 177.111C105.195 177.026 105.282 176.931 105.347 176.826C105.412 176.72 105.446 176.612 105.449 176.501V175.79L104.867 175.802C104.57 175.805 104.318 175.836 104.112 175.894C103.905 175.952 103.747 176.042 103.637 176.164C103.528 176.286 103.473 176.449 103.473 176.651C103.473 176.881 103.553 177.061 103.714 177.19ZM108.381 177.92V175.079C108.381 174.901 108.43 174.753 108.527 174.636C108.624 174.518 108.751 174.43 108.909 174.371C109.067 174.313 109.234 174.284 109.409 174.284C109.669 174.284 109.882 174.359 110.047 174.509C110.212 174.658 110.295 174.887 110.295 175.195V177.92H111.185V175.099C111.185 174.742 111.116 174.45 110.977 174.224C110.838 173.998 110.654 173.831 110.426 173.725C110.197 173.618 109.948 173.564 109.679 173.564C109.452 173.564 109.251 173.596 109.078 173.66C108.904 173.724 108.759 173.807 108.641 173.91C108.523 174.012 108.43 174.122 108.36 174.238V173.618H107.491V177.92H108.381ZM114.443 177.907C114.274 177.971 114.07 178.003 113.832 178.003C113.266 178.003 112.821 177.81 112.497 177.423C112.172 177.036 112.01 176.478 112.01 175.748C112.01 175.302 112.075 174.913 112.205 174.582C112.336 174.25 112.53 173.993 112.79 173.81C113.049 173.627 113.37 173.535 113.753 173.535C113.947 173.535 114.12 173.559 114.271 173.606C114.422 173.653 114.555 173.714 114.67 173.789C114.785 173.864 114.881 173.944 114.957 174.03C115.033 174.116 115.092 174.197 115.134 174.272V171.738H116.028V177.92H115.363L115.263 177.038C115.232 177.132 115.185 177.235 115.121 177.346C115.058 177.457 114.971 177.562 114.861 177.662C114.752 177.762 114.613 177.844 114.443 177.907ZM114.002 177.333C113.645 177.333 113.371 177.195 113.181 176.917C112.991 176.64 112.896 176.241 112.896 175.719C112.896 175.19 113 174.806 113.208 174.569C113.416 174.332 113.685 174.213 114.015 174.213C114.278 174.213 114.491 174.271 114.653 174.386C114.816 174.501 114.936 174.671 115.013 174.896C115.091 175.12 115.131 175.395 115.134 175.719C115.134 176.293 115.045 176.706 114.868 176.957C114.69 177.208 114.402 177.333 114.002 177.333ZM40.8901 188.699V190.779H39.9957V185.138H40.886L40.8943 185.854C40.947 185.76 41.0149 185.666 41.0981 185.573C41.1813 185.48 41.2805 185.394 41.3956 185.315C41.5107 185.236 41.6424 185.173 41.7908 185.126C41.9391 185.079 42.1035 185.055 42.2837 185.055C42.6221 185.055 42.9209 185.134 43.1802 185.29C43.4395 185.447 43.642 185.687 43.7876 186.01C43.9332 186.333 44.006 186.743 44.006 187.239C44.006 187.738 43.9332 188.157 43.7876 188.496C43.642 188.834 43.4347 189.09 43.1656 189.263C42.8966 189.436 42.5777 189.523 42.2088 189.523C42.0314 189.523 41.8719 189.498 41.7304 189.448C41.589 189.398 41.4642 189.332 41.356 189.251C41.2479 189.169 41.1557 189.08 41.0794 188.984C41.0031 188.889 40.94 188.794 40.8901 188.699ZM42.0216 188.845C41.772 188.845 41.5627 188.773 41.3935 188.629C41.2243 188.485 41.0974 188.292 41.0128 188.053C40.9283 187.813 40.886 187.547 40.886 187.256C40.886 186.809 40.9816 186.444 41.173 186.16C41.3644 185.875 41.6472 185.733 42.0216 185.733C42.385 185.733 42.6644 185.87 42.8599 186.143C43.0554 186.416 43.1532 186.787 43.1532 187.256C43.1532 187.802 43.0471 188.204 42.8349 188.46C42.6228 188.717 42.3517 188.845 42.0216 188.845ZM45.7846 186.852V189.44H44.8943V185.138H45.7471V186.02C45.8193 185.81 45.9198 185.633 46.0487 185.49C46.1777 185.347 46.3282 185.239 46.5001 185.166C46.6721 185.092 46.8537 185.055 47.0451 185.055C47.1033 185.055 47.1588 185.059 47.2115 185.066C47.2642 185.073 47.3058 185.084 47.3363 185.101V185.958C47.3002 185.941 47.2538 185.93 47.1969 185.925C47.1401 185.919 47.0908 185.915 47.0492 185.912C46.8606 185.898 46.6887 185.908 46.5334 185.941C46.3781 185.975 46.2443 186.03 46.1319 186.108C46.0196 186.185 45.9337 186.287 45.874 186.411C45.8144 186.536 45.7846 186.683 45.7846 186.852ZM49.7706 189.523C50.2005 189.523 50.5631 189.43 50.8584 189.242C51.1538 189.055 51.3784 188.795 51.5324 188.462C51.6863 188.13 51.7632 187.745 51.7632 187.31C51.7632 186.833 51.6814 186.426 51.5178 186.089C51.3542 185.752 51.124 185.496 50.8272 185.319C50.5305 185.143 50.1797 185.055 49.7748 185.055C49.3504 185.055 48.9885 185.149 48.689 185.336C48.3895 185.523 48.1614 185.786 48.0047 186.124C47.848 186.463 47.7696 186.858 47.7696 187.31C47.7696 187.779 47.8522 188.178 48.0172 188.508C48.1822 188.838 48.4151 189.09 48.716 189.263C49.017 189.436 49.3685 189.523 49.7706 189.523ZM49.1216 188.625C49.288 188.766 49.5058 188.837 49.7748 188.837C50.0188 188.837 50.2234 188.772 50.3884 188.643C50.5534 188.514 50.6775 188.333 50.7607 188.098C50.8439 187.864 50.8855 187.593 50.8855 187.285C50.8855 186.999 50.8487 186.739 50.7752 186.505C50.7018 186.271 50.5832 186.084 50.4196 185.946C50.2559 185.807 50.041 185.738 49.7748 185.738C49.5252 185.738 49.3172 185.801 49.1508 185.927C48.9844 186.053 48.8589 186.232 48.7743 186.463C48.6897 186.695 48.6474 186.969 48.6474 187.285C48.6474 187.565 48.6848 187.823 48.7597 188.059C48.8346 188.295 48.9552 188.483 49.1216 188.625ZM54.4012 189.523C54.7173 189.523 55.0009 189.462 55.2519 189.34C55.5029 189.218 55.7067 189.047 55.8634 188.828C56.0201 188.609 56.1137 188.356 56.1442 188.067H55.3871C55.3649 188.197 55.3136 188.324 55.2332 188.446C55.1527 188.568 55.0439 188.668 54.9066 188.745C54.7693 188.823 54.6078 188.862 54.422 188.862C54.0365 188.862 53.7432 188.72 53.5421 188.437C53.3411 188.154 53.2405 187.775 53.2405 187.298C53.2405 186.776 53.3487 186.389 53.565 186.137C53.7813 185.885 54.0614 185.758 54.4053 185.758C54.5939 185.758 54.7568 185.795 54.8941 185.869C55.0314 185.942 55.141 186.04 55.2228 186.162C55.3046 186.284 55.358 186.416 55.3829 186.557H56.1525C56.1192 186.258 56.025 185.995 55.8696 185.771C55.7143 185.546 55.5112 185.371 55.2602 185.245C55.0092 185.118 54.7229 185.055 54.4012 185.055C53.9824 185.055 53.6226 185.15 53.3216 185.338C53.0207 185.527 52.7912 185.79 52.6332 186.129C52.4751 186.467 52.396 186.859 52.396 187.306C52.396 187.78 52.4813 188.183 52.6519 188.514C52.8224 188.846 53.0589 189.097 53.3612 189.267C53.6635 189.438 54.0101 189.523 54.4012 189.523ZM59.7387 189.367C59.478 189.471 59.2048 189.523 58.9191 189.523C58.5115 189.523 58.1523 189.435 57.8417 189.259C57.5311 189.083 57.2891 188.831 57.1158 188.504C56.9425 188.177 56.8558 187.787 56.8558 187.335C56.8558 186.888 56.9348 186.494 57.0929 186.151C57.251 185.809 57.4798 185.541 57.7793 185.346C58.0788 185.152 58.4394 185.055 58.8609 185.055C59.2769 185.055 59.627 185.144 59.9113 185.322C60.1956 185.499 60.4112 185.748 60.5582 186.068C60.7052 186.389 60.7787 186.766 60.7787 187.202V187.497H57.7502C57.7502 187.755 57.7925 187.986 57.8771 188.19C57.9617 188.394 58.0899 188.555 58.2619 188.672C58.4338 188.79 58.6474 188.849 58.9025 188.849C59.1577 188.849 59.3788 188.791 59.566 188.674C59.7532 188.558 59.8759 188.385 59.9342 188.154H60.7579C60.7079 188.448 60.5908 188.698 60.4063 188.903C60.2219 189.109 59.9994 189.263 59.7387 189.367ZM59.93 186.919H57.7502C57.7502 186.722 57.7911 186.531 57.8729 186.345C57.9547 186.159 58.0774 186.007 58.2411 185.887C58.4047 185.768 58.6099 185.708 58.8567 185.708C59.098 185.708 59.2984 185.762 59.4579 185.869C59.6173 185.975 59.7359 186.121 59.8135 186.305C59.8912 186.49 59.93 186.694 59.93 186.919ZM64.1649 189.367C63.9111 189.471 63.6095 189.523 63.2601 189.523C62.9605 189.523 62.6797 189.476 62.4177 189.382C62.1556 189.287 61.9365 189.139 61.7604 188.937C61.5843 188.734 61.474 188.475 61.4297 188.159H62.2242C62.2603 188.322 62.3289 188.457 62.4301 188.564C62.5314 188.671 62.6534 188.75 62.7962 188.801C62.9391 188.853 63.0923 188.878 63.2559 188.878C63.5277 188.878 63.7475 188.829 63.9153 188.731C64.0831 188.632 64.1669 188.48 64.1669 188.275C64.1669 188.128 64.1219 188.01 64.0317 187.922C63.9416 187.833 63.7995 187.768 63.6053 187.726L62.7484 187.522C62.3934 187.439 62.1091 187.307 61.8956 187.125C61.682 186.943 61.5739 186.689 61.5711 186.362C61.5711 186.109 61.6342 185.885 61.7604 185.688C61.8866 185.491 62.0745 185.336 62.3241 185.224C62.5737 185.111 62.8843 185.055 63.2559 185.055C63.7412 185.055 64.1309 185.163 64.4249 185.38C64.7188 185.596 64.8714 185.909 64.8825 186.32H64.1129C64.0851 186.123 63.9957 185.968 63.8445 185.856C63.6934 185.744 63.4944 185.688 63.2476 185.688C62.9924 185.688 62.7831 185.738 62.6194 185.839C62.4558 185.941 62.374 186.095 62.374 186.303C62.374 186.445 62.4336 186.556 62.5529 186.638C62.6721 186.72 62.851 186.787 63.0895 186.84L63.9049 187.044C64.1156 187.099 64.289 187.172 64.4249 187.262C64.5608 187.352 64.6675 187.451 64.7452 187.56C64.8228 187.668 64.8776 187.78 64.9095 187.897C64.9414 188.013 64.9573 188.123 64.9573 188.225C64.9573 188.497 64.8887 188.729 64.7514 188.922C64.6141 189.115 64.4186 189.263 64.1649 189.367ZM67.414 189.523C67.7635 189.523 68.0651 189.471 68.3188 189.367C68.5726 189.263 68.7681 189.115 68.9054 188.922C69.0427 188.729 69.1113 188.497 69.1113 188.225C69.1113 188.123 69.0954 188.013 69.0635 187.897C69.0316 187.78 68.9768 187.668 68.8992 187.56C68.8215 187.451 68.7147 187.352 68.5788 187.262C68.443 187.172 68.2696 187.099 68.0588 187.044L67.2435 186.84C67.005 186.787 66.8261 186.72 66.7068 186.638C66.5876 186.556 66.528 186.445 66.528 186.303C66.528 186.095 66.6098 185.941 66.7734 185.839C66.937 185.738 67.1464 185.688 67.4016 185.688C67.6484 185.688 67.8474 185.744 67.9985 185.856C68.1497 185.968 68.2391 186.123 68.2668 186.32H69.0364C69.0254 185.909 68.8728 185.596 68.5788 185.38C68.2849 185.163 67.8952 185.055 67.4099 185.055C67.0383 185.055 66.7276 185.111 66.478 185.224C66.2284 185.336 66.0406 185.491 65.9144 185.688C65.7882 185.885 65.7251 186.109 65.7251 186.362C65.7279 186.689 65.836 186.943 66.0496 187.125C66.2631 187.307 66.5474 187.439 66.9024 187.522L67.7593 187.726C67.9535 187.768 68.0956 187.833 68.1857 187.922C68.2759 188.01 68.3209 188.128 68.3209 188.275C68.3209 188.48 68.237 188.632 68.0692 188.731C67.9015 188.829 67.6817 188.878 67.4099 188.878C67.2463 188.878 67.093 188.853 66.9502 188.801C66.8074 188.75 66.6854 188.671 66.5841 188.564C66.4829 188.457 66.4143 188.322 66.3782 188.159H65.5836C65.628 188.475 65.7383 188.734 65.9144 188.937C66.0905 189.139 66.3096 189.287 66.5716 189.382C66.8337 189.476 67.1145 189.523 67.414 189.523ZM72.7203 189.367C72.4597 189.471 72.1865 189.523 71.9008 189.523C71.4931 189.523 71.134 189.435 70.8234 189.259C70.5128 189.083 70.2708 188.831 70.0975 188.504C69.9241 188.177 69.8375 187.787 69.8375 187.335C69.8375 186.888 69.9165 186.494 70.0746 186.151C70.2327 185.809 70.4615 185.541 70.761 185.346C71.0605 185.152 71.421 185.055 71.8426 185.055C72.2586 185.055 72.6087 185.144 72.893 185.322C73.1773 185.499 73.3929 185.748 73.5399 186.068C73.6869 186.389 73.7603 186.766 73.7603 187.202V187.497H70.7319C70.7319 187.755 70.7742 187.986 70.8587 188.19C70.9433 188.394 71.0716 188.555 71.2435 188.672C71.4155 188.79 71.629 188.849 71.8842 188.849C72.1393 188.849 72.3605 188.791 72.5477 188.674C72.7349 188.558 72.8576 188.385 72.9159 188.154H73.7395C73.6896 188.448 73.5725 188.698 73.388 188.903C73.2036 189.109 72.981 189.263 72.7203 189.367ZM72.9117 186.919H70.7319C70.7319 186.722 70.7728 186.531 70.8546 186.345C70.9364 186.159 71.0591 186.007 71.2227 185.887C71.3864 185.768 71.5916 185.708 71.8384 185.708C72.0797 185.708 72.2801 185.762 72.4395 185.869C72.599 185.975 72.7176 186.121 72.7952 186.305C72.8729 186.49 72.9117 186.694 72.9117 186.919ZM76.8699 189.427C76.7007 189.491 76.4969 189.523 76.2584 189.523C75.6926 189.523 75.2475 189.33 74.923 188.943C74.5985 188.556 74.4363 187.998 74.4363 187.268C74.4363 186.822 74.5015 186.433 74.6318 186.102C74.7622 185.77 74.957 185.513 75.2163 185.33C75.4756 185.147 75.7966 185.055 76.1793 185.055C76.3735 185.055 76.5461 185.079 76.6973 185.126C76.8484 185.173 76.9815 185.234 77.0966 185.309C77.2117 185.384 77.3074 185.464 77.3837 185.55C77.4599 185.636 77.5189 185.717 77.5605 185.792V183.258H78.4549V189.44H77.7893L77.6894 188.558C77.6589 188.652 77.6118 188.755 77.548 188.866C77.4842 188.977 77.3975 189.082 77.288 189.182C77.1784 189.282 77.0391 189.364 76.8699 189.427ZM76.4289 188.853C76.0712 188.853 75.7973 188.715 75.6073 188.437C75.4174 188.16 75.3224 187.761 75.3224 187.239C75.3224 186.71 75.4264 186.326 75.6344 186.089C75.8424 185.852 76.1114 185.733 76.4414 185.733C76.7049 185.733 76.9177 185.791 77.08 185.906C77.2422 186.021 77.3622 186.191 77.4398 186.416C77.5175 186.64 77.5577 186.915 77.5605 187.239C77.5605 187.813 77.4717 188.226 77.2942 188.477C77.1167 188.728 76.8283 188.853 76.4289 188.853ZM83.8932 189.367C83.6395 189.471 83.3378 189.523 82.9884 189.523C82.6889 189.523 82.4081 189.476 82.146 189.382C81.8839 189.287 81.6648 189.139 81.4887 188.937C81.3126 188.734 81.2024 188.475 81.158 188.159H81.9526C81.9886 188.322 82.0573 188.457 82.1585 188.564C82.2597 188.671 82.3817 188.75 82.5246 188.801C82.6674 188.853 82.8206 188.878 82.9842 188.878C83.256 188.878 83.4758 188.829 83.6436 188.731C83.8114 188.632 83.8953 188.48 83.8953 188.275C83.8953 188.128 83.8502 188.01 83.7601 187.922C83.67 187.833 83.5278 187.768 83.3337 187.726L82.4767 187.522C82.1217 187.439 81.8375 187.307 81.6239 187.125C81.4104 186.943 81.3022 186.689 81.2994 186.362C81.2994 186.109 81.3625 185.885 81.4887 185.688C81.6149 185.491 81.8028 185.336 82.0524 185.224C82.302 185.111 82.6126 185.055 82.9842 185.055C83.4696 185.055 83.8592 185.163 84.1532 185.38C84.4472 185.596 84.5997 185.909 84.6108 186.32H83.8412C83.8135 186.123 83.724 185.968 83.5729 185.856C83.4217 185.744 83.2228 185.688 82.9759 185.688C82.7208 185.688 82.5114 185.738 82.3478 185.839C82.1841 185.941 82.1023 186.095 82.1023 186.303C82.1023 186.445 82.162 186.556 82.2812 186.638C82.4005 186.72 82.5793 186.787 82.8178 186.84L83.6332 187.044C83.844 187.099 84.0173 187.172 84.1532 187.262C84.2891 187.352 84.3959 187.451 84.4735 187.56C84.5512 187.668 84.606 187.78 84.6378 187.897C84.6697 188.013 84.6857 188.123 84.6857 188.225C84.6857 188.497 84.6171 188.729 84.4798 188.922C84.3425 189.115 84.147 189.263 83.8932 189.367ZM87.2131 189.523C87.41 189.526 87.5965 189.497 87.7726 189.438C87.9487 189.378 88.1013 189.281 88.2302 189.147C88.3592 189.012 88.4486 188.833 88.4985 188.608L88.5984 189.44H89.2889V185.138H88.4029V187.938C88.4029 188.235 88.3141 188.46 88.1366 188.614C87.9591 188.768 87.7234 188.845 87.4294 188.845C87.1049 188.845 86.8623 188.765 86.7014 188.604C86.5406 188.443 86.4601 188.234 86.4601 187.976V185.138H85.5657V188.071C85.5657 188.31 85.6108 188.519 85.7009 188.699C85.7911 188.88 85.9131 189.031 86.067 189.153C86.2209 189.275 86.3964 189.366 86.5933 189.427C86.7902 189.488 86.9968 189.52 87.2131 189.523ZM92.9692 189.34C92.7182 189.462 92.4347 189.523 92.1185 189.523C91.7274 189.523 91.3808 189.438 91.0785 189.267C90.7762 189.097 90.5398 188.846 90.3692 188.514C90.1987 188.183 90.1134 187.78 90.1134 187.306C90.1134 186.859 90.1924 186.467 90.3505 186.129C90.5086 185.79 90.7381 185.527 91.039 185.338C91.3399 185.15 91.6997 185.055 92.1185 185.055C92.4402 185.055 92.7265 185.118 92.9775 185.245C93.2285 185.371 93.4317 185.546 93.587 185.771C93.7423 185.995 93.8366 186.258 93.8699 186.557H93.1003C93.0753 186.416 93.0219 186.284 92.9401 186.162C92.8583 186.04 92.7487 185.942 92.6115 185.869C92.4742 185.795 92.3112 185.758 92.1227 185.758C91.7788 185.758 91.4986 185.885 91.2823 186.137C91.066 186.389 90.9578 186.776 90.9578 187.298C90.9578 187.775 91.0584 188.154 91.2594 188.437C91.4605 188.72 91.7538 188.862 92.1393 188.862C92.3251 188.862 92.4866 188.823 92.6239 188.745C92.7612 188.668 92.8701 188.568 92.9505 188.446C93.0309 188.324 93.0822 188.197 93.1044 188.067H93.8615C93.831 188.356 93.7374 188.609 93.5807 188.828C93.424 189.047 93.2202 189.218 92.9692 189.34ZM96.5449 189.523C96.8611 189.523 97.1447 189.462 97.3957 189.34C97.6467 189.218 97.8505 189.047 98.0072 188.828C98.1639 188.609 98.2575 188.356 98.288 188.067H97.5309C97.5087 188.197 97.4574 188.324 97.3769 188.446C97.2965 188.568 97.1877 188.668 97.0504 188.745C96.9131 188.823 96.7516 188.862 96.5658 188.862C96.1803 188.862 95.887 188.72 95.6859 188.437C95.4848 188.154 95.3843 187.775 95.3843 187.298C95.3843 186.776 95.4925 186.389 95.7088 186.137C95.9251 185.885 96.2052 185.758 96.5491 185.758C96.7377 185.758 96.9006 185.795 97.0379 185.869C97.1752 185.942 97.2847 186.04 97.3666 186.162C97.4484 186.284 97.5018 186.416 97.5267 186.557H98.2963C98.263 186.258 98.1687 185.995 98.0134 185.771C97.8581 185.546 97.655 185.371 97.404 185.245C97.153 185.118 96.8667 185.055 96.5449 185.055C96.1262 185.055 95.7663 185.15 95.4654 185.338C95.1645 185.527 94.935 185.79 94.777 186.129C94.6189 186.467 94.5398 186.859 94.5398 187.306C94.5398 187.78 94.6251 188.183 94.7957 188.514C94.9662 188.846 95.2027 189.097 95.5049 189.267C95.8072 189.438 96.1539 189.523 96.5449 189.523ZM101.882 189.367C101.622 189.471 101.349 189.523 101.063 189.523C100.655 189.523 100.296 189.435 99.9855 189.259C99.6749 189.083 99.4329 188.831 99.2596 188.504C99.0862 188.177 98.9996 187.787 98.9996 187.335C98.9996 186.888 99.0786 186.494 99.2367 186.151C99.3948 185.809 99.6236 185.541 99.9231 185.346C100.223 185.152 100.583 185.055 101.005 185.055C101.421 185.055 101.771 185.144 102.055 185.322C102.339 185.499 102.555 185.748 102.702 186.068C102.849 186.389 102.922 186.766 102.922 187.202V187.497H99.894C99.894 187.755 99.9363 187.986 100.021 188.19C100.105 188.394 100.234 188.555 100.406 188.672C100.578 188.79 100.791 188.849 101.046 188.849C101.301 188.849 101.523 188.791 101.71 188.674C101.897 188.558 102.02 188.385 102.078 188.154H102.902C102.852 188.448 102.735 188.698 102.55 188.903C102.366 189.109 102.143 189.263 101.882 189.367ZM102.074 186.919H99.894C99.894 186.722 99.9349 186.531 100.017 186.345C100.098 186.159 100.221 186.007 100.385 185.887C100.548 185.768 100.754 185.708 101.001 185.708C101.242 185.708 101.442 185.762 101.602 185.869C101.761 185.975 101.88 186.121 101.957 186.305C102.035 186.49 102.074 186.694 102.074 186.919ZM106.309 189.367C106.055 189.471 105.753 189.523 105.404 189.523C105.104 189.523 104.824 189.476 104.561 189.382C104.299 189.287 104.08 189.139 103.904 188.937C103.728 188.734 103.618 188.475 103.573 188.159H104.368C104.404 188.322 104.473 188.457 104.574 188.564C104.675 188.671 104.797 188.75 104.94 188.801C105.083 188.853 105.236 188.878 105.4 188.878C105.671 188.878 105.891 188.829 106.059 188.731C106.227 188.632 106.311 188.48 106.311 188.275C106.311 188.128 106.266 188.01 106.176 187.922C106.085 187.833 105.943 187.768 105.749 187.726L104.892 187.522C104.537 187.439 104.253 187.307 104.039 187.125C103.826 186.943 103.718 186.689 103.715 186.362C103.715 186.109 103.778 185.885 103.904 185.688C104.03 185.491 104.218 185.336 104.468 185.224C104.717 185.111 105.028 185.055 105.4 185.055C105.885 185.055 106.275 185.163 106.569 185.38C106.863 185.596 107.015 185.909 107.026 186.32H106.257C106.229 186.123 106.139 185.968 105.988 185.856C105.837 185.744 105.638 185.688 105.391 185.688C105.136 185.688 104.927 185.738 104.763 185.839C104.6 185.941 104.518 186.095 104.518 186.303C104.518 186.445 104.577 186.556 104.697 186.638C104.816 186.72 104.995 186.787 105.233 186.84L106.049 187.044C106.259 187.099 106.433 187.172 106.569 187.262C106.705 187.352 106.811 187.451 106.889 187.56C106.967 187.668 107.021 187.78 107.053 187.897C107.085 188.013 107.101 188.123 107.101 188.225C107.101 188.497 107.032 188.729 106.895 188.922C106.758 189.115 106.562 189.263 106.309 189.367ZM109.558 189.523C109.907 189.523 110.209 189.471 110.463 189.367C110.716 189.263 110.912 189.115 111.049 188.922C111.186 188.729 111.255 188.497 111.255 188.225C111.255 188.123 111.239 188.013 111.207 187.897C111.175 187.78 111.121 187.668 111.043 187.56C110.965 187.451 110.859 187.352 110.723 187.262C110.587 187.172 110.413 187.099 110.203 187.044L109.387 186.84C109.149 186.787 108.97 186.72 108.851 186.638C108.731 186.556 108.672 186.445 108.672 186.303C108.672 186.095 108.754 185.941 108.917 185.839C109.081 185.738 109.29 185.688 109.545 185.688C109.792 185.688 109.991 185.744 110.142 185.856C110.293 185.968 110.383 186.123 110.411 186.32H111.18C111.169 185.909 111.017 185.596 110.723 185.38C110.429 185.163 110.039 185.055 109.554 185.055C109.182 185.055 108.871 185.111 108.622 185.224C108.372 185.336 108.184 185.491 108.058 185.688C107.932 185.885 107.869 186.109 107.869 186.362C107.872 186.689 107.98 186.943 108.193 187.125C108.407 187.307 108.691 187.439 109.046 187.522L109.903 187.726C110.097 187.768 110.239 187.833 110.33 187.922C110.42 188.01 110.465 188.128 110.465 188.275C110.465 188.48 110.381 188.632 110.213 188.731C110.045 188.829 109.825 188.878 109.554 188.878C109.39 188.878 109.237 188.853 109.094 188.801C108.951 188.75 108.829 188.671 108.728 188.564C108.627 188.457 108.558 188.322 108.522 188.159H107.727C107.772 188.475 107.882 188.734 108.058 188.937C108.234 189.139 108.453 189.287 108.715 189.382C108.978 189.476 109.258 189.523 109.558 189.523ZM113.679 185.779V189.44H112.784V185.779H111.906V185.138H112.784V184.485C112.784 184.141 112.876 183.879 113.059 183.697C113.242 183.515 113.511 183.425 113.866 183.425H114.723L114.727 184.04H114.107C113.935 184.04 113.818 184.085 113.755 184.175C113.693 184.266 113.662 184.404 113.662 184.589V185.138H114.685V185.779H113.679ZM117.085 189.523C117.282 189.526 117.468 189.497 117.644 189.438C117.82 189.378 117.973 189.281 118.102 189.147C118.231 189.012 118.32 188.833 118.37 188.608L118.47 189.44H119.161V185.138H118.275V187.938C118.275 188.235 118.186 188.46 118.008 188.614C117.831 188.768 117.595 188.845 117.301 188.845C116.977 188.845 116.734 188.765 116.573 188.604C116.412 188.443 116.332 188.234 116.332 187.976V185.138H115.437V188.071C115.437 188.31 115.482 188.519 115.573 188.699C115.663 188.88 115.785 189.031 115.939 189.153C116.093 189.275 116.268 189.366 116.465 189.427C116.662 189.488 116.868 189.52 117.085 189.523ZM121.655 189.477C121.582 189.491 121.513 189.498 121.449 189.498C121.194 189.498 120.99 189.465 120.836 189.398C120.682 189.332 120.565 189.242 120.484 189.13C120.404 189.018 120.35 188.89 120.324 188.747C120.298 188.604 120.285 188.457 120.285 188.304V183.258H121.162V188.213C121.162 188.412 121.202 188.565 121.281 188.67C121.36 188.776 121.481 188.835 121.645 188.849L121.869 188.858V189.423C121.8 189.445 121.729 189.463 121.655 189.477ZM123.799 189.498C123.862 189.498 123.931 189.491 124.005 189.477C124.078 189.463 124.149 189.445 124.219 189.423V188.858L123.994 188.849C123.831 188.835 123.709 188.776 123.63 188.67C123.551 188.565 123.512 188.412 123.512 188.213V183.258H122.634V188.304C122.634 188.457 122.647 188.604 122.673 188.747C122.7 188.89 122.753 189.018 122.834 189.13C122.914 189.242 123.031 189.332 123.185 189.398C123.339 189.465 123.544 189.498 123.799 189.498ZM125.99 190.717C125.815 190.781 125.625 190.813 125.42 190.813C125.157 190.813 124.974 190.793 124.873 190.754L124.721 190.696V190.122L125.158 190.13C125.324 190.139 125.461 190.129 125.568 190.101C125.674 190.074 125.759 190.035 125.821 189.987C125.884 189.938 125.932 189.886 125.965 189.831C125.998 189.775 126.023 189.724 126.04 189.677L126.173 189.315L124.496 185.138H125.387L126.593 188.317L127.791 185.138H128.665L126.872 189.681C126.75 189.981 126.616 190.212 126.47 190.376C126.325 190.54 126.165 190.653 125.99 190.717Z" fill="#36536B"/>
<circle opacity="0.25" cx="83.1201" cy="131.84" r="17.92" fill="#BA4270"/>
<path d="M77.3601 132.925L80.2893 135.855L88.7842 127.36" stroke="#BA4270" stroke-width="3"/>
<rect x="42.16" y="203.52" width="83.84" height="19.2" rx="9.6" fill="#BA4270"/>
<path fill-rule="evenodd" clip-rule="evenodd" d="M74.9852 215.367C74.5898 215.576 74.0882 215.68 73.4804 215.68H71.995V210.59H72.6304C72.7911 210.59 72.9518 210.591 73.1126 210.592C73.2733 210.593 73.4077 210.595 73.5156 210.597C74.1328 210.611 74.6362 210.722 75.0257 210.928C75.4153 211.135 75.701 211.423 75.8828 211.794C76.0647 212.165 76.1556 212.604 76.1556 213.111C76.1556 213.639 76.0594 214.094 75.867 214.478C75.6746 214.862 75.3806 215.158 74.9852 215.367ZM73.0299 214.85H73.5016C73.7925 214.85 74.0571 214.793 74.2953 214.681C74.5335 214.568 74.7242 214.384 74.8673 214.128C75.0105 213.872 75.082 213.531 75.082 213.104C75.082 212.707 75.0187 212.385 74.892 212.137C74.7652 211.89 74.5845 211.709 74.3499 211.594C74.1152 211.479 73.8371 211.421 73.5156 211.421H73.0299V214.85ZM77.9248 211.52V210.594H76.9252V211.52H77.9248ZM77.9143 212.041V215.68H76.9322V212.041H77.9143ZM80.2326 215.751C80.5353 215.751 80.8017 215.706 81.0316 215.617C81.2616 215.528 81.4411 215.398 81.5702 215.228C81.6993 215.058 81.7638 214.852 81.7638 214.61C81.7638 214.528 81.7503 214.436 81.7233 214.334C81.6963 214.232 81.6476 214.13 81.5772 214.029C81.5068 213.928 81.4077 213.835 81.2798 213.75C81.1519 213.664 80.9859 213.596 80.7817 213.547L80.1904 213.413C79.9932 213.373 79.8478 213.326 79.7539 213.271C79.66 213.216 79.6131 213.14 79.6131 213.044C79.6131 212.915 79.6706 212.818 79.7856 212.755C79.9006 212.692 80.0472 212.66 80.2256 212.66C80.3969 212.66 80.5394 212.698 80.6532 212.774C80.7671 212.851 80.8369 212.959 80.8627 213.1H81.7216C81.7169 212.741 81.5802 212.463 81.3115 212.266C81.0428 212.069 80.6843 211.97 80.2361 211.97C79.9052 211.97 79.626 212.021 79.3984 212.122C79.1707 212.222 78.9988 212.36 78.8827 212.533C78.7665 212.707 78.7084 212.903 78.7084 213.121C78.7131 213.422 78.8129 213.653 79.0076 213.816C79.2024 213.98 79.4606 214.095 79.782 214.163L80.4227 214.297C80.587 214.327 80.7049 214.372 80.7764 214.431C80.848 214.489 80.8838 214.568 80.8838 214.666C80.8838 214.796 80.8234 214.891 80.7025 214.953C80.5817 215.016 80.4227 215.047 80.2256 215.047C80.1317 215.047 80.0331 215.031 79.9299 214.999C79.8266 214.967 79.7345 214.914 79.6536 214.839C79.5726 214.764 79.5169 214.662 79.4864 214.533H78.5958C78.6404 214.819 78.7436 215.052 78.9056 215.231C79.0675 215.411 79.2658 215.542 79.5004 215.626C79.7351 215.709 79.9792 215.751 80.2326 215.751ZM83.4556 213.35V215.68H82.4277V212.041H83.4345V212.554C83.5447 212.395 83.6932 212.258 83.8797 212.143C84.0663 212.028 84.3015 211.97 84.5855 211.97C84.7099 211.97 84.8366 211.992 84.9657 212.037C85.0947 212.082 85.2162 212.147 85.33 212.232C85.4438 212.318 85.5359 212.425 85.6063 212.554C85.7236 212.388 85.8779 212.249 86.0692 212.137C86.2604 212.026 86.4734 211.97 86.7081 211.97C86.8442 211.97 86.982 211.992 87.1217 212.037C87.2613 212.082 87.3898 212.154 87.5071 212.255C87.6244 212.356 87.7189 212.491 87.7905 212.658C87.862 212.826 87.8978 213.033 87.8978 213.28V215.68H86.87V213.406C86.87 213.261 86.8412 213.144 86.7837 213.056C86.7262 212.968 86.6535 212.905 86.5655 212.866C86.4775 212.827 86.3842 212.808 86.2857 212.808C86.1941 212.808 86.1014 212.826 86.0076 212.862C85.9137 212.899 85.8339 212.957 85.7682 213.037C85.7025 213.117 85.6697 213.221 85.6697 213.35V215.68H84.6453V213.315C84.6453 213.205 84.616 213.112 84.5573 213.037C84.4987 212.962 84.4253 212.905 84.3373 212.866C84.2493 212.827 84.1596 212.808 84.0681 212.808C83.9742 212.808 83.8803 212.827 83.7865 212.866C83.6926 212.905 83.614 212.965 83.5506 213.046C83.4873 213.126 83.4556 213.228 83.4556 213.35ZM89.7233 211.52V210.594H88.7237V211.52H89.7233ZM89.7128 212.041V215.68H88.7307V212.041H89.7128ZM92.0311 215.751C92.3338 215.751 92.6002 215.706 92.8301 215.617C93.0601 215.528 93.2396 215.398 93.3687 215.228C93.4978 215.058 93.5623 214.852 93.5623 214.61C93.5623 214.528 93.5488 214.436 93.5218 214.334C93.4948 214.232 93.4461 214.13 93.3757 214.029C93.3053 213.928 93.2062 213.835 93.0783 213.75C92.9504 213.664 92.7844 213.596 92.5802 213.547L91.9889 213.413C91.7917 213.373 91.6463 213.326 91.5524 213.271C91.4585 213.216 91.4116 213.14 91.4116 213.044C91.4116 212.915 91.4691 212.818 91.5841 212.755C91.6991 212.692 91.8457 212.66 92.0241 212.66C92.1954 212.66 92.3379 212.698 92.4517 212.774C92.5656 212.851 92.6354 212.959 92.6612 213.1H93.5201C93.5154 212.741 93.3787 212.463 93.11 212.266C92.8413 212.069 92.4828 211.97 92.0346 211.97C91.7037 211.97 91.4245 212.021 91.1969 212.122C90.9692 212.222 90.7973 212.36 90.6812 212.533C90.565 212.707 90.5069 212.903 90.5069 213.121C90.5116 213.422 90.6114 213.653 90.8061 213.816C91.0009 213.98 91.2591 214.095 91.5805 214.163L92.2212 214.297C92.3855 214.327 92.5034 214.372 92.5749 214.431C92.6465 214.489 92.6823 214.568 92.6823 214.666C92.6823 214.796 92.6219 214.891 92.501 214.953C92.3802 215.016 92.2212 215.047 92.0241 215.047C91.9302 215.047 91.8316 215.031 91.7284 214.999C91.6251 214.967 91.533 214.914 91.4521 214.839C91.3711 214.764 91.3154 214.662 91.2849 214.533H90.3943C90.4389 214.819 90.5421 215.052 90.7041 215.231C90.866 215.411 91.0643 215.542 91.2989 215.626C91.5336 215.709 91.7777 215.751 92.0311 215.751ZM96.4192 215.617C96.1892 215.706 95.9229 215.751 95.6202 215.751C95.3667 215.751 95.1227 215.709 94.888 215.626C94.6533 215.542 94.455 215.411 94.2931 215.231C94.1312 215.052 94.0279 214.819 93.9834 214.533H94.8739C94.9044 214.662 94.9602 214.764 95.0411 214.839C95.1221 214.914 95.2142 214.967 95.3174 214.999C95.4207 215.031 95.5192 215.047 95.6131 215.047C95.8102 215.047 95.9692 215.016 96.0901 214.953C96.2109 214.891 96.2714 214.796 96.2714 214.666C96.2714 214.568 96.2356 214.489 96.164 214.431C96.0924 214.372 95.9745 214.327 95.8102 214.297L95.1696 214.163C94.8481 214.095 94.59 213.98 94.3952 213.816C94.2004 213.653 94.1007 213.422 94.096 213.121C94.096 212.903 94.1541 212.707 94.2702 212.533C94.3864 212.36 94.5583 212.222 94.7859 212.122C95.0135 212.021 95.2928 211.97 95.6237 211.97C96.0719 211.97 96.4303 212.069 96.699 212.266C96.9677 212.463 97.1044 212.741 97.1091 213.1H96.2502C96.2244 212.959 96.1546 212.851 96.0408 212.774C95.927 212.698 95.7844 212.66 95.6131 212.66C95.4348 212.66 95.2881 212.692 95.1731 212.755C95.0581 212.818 95.0006 212.915 95.0006 213.044C95.0006 213.14 95.0476 213.216 95.1414 213.271C95.2353 213.326 95.3808 213.373 95.5779 213.413L96.1693 213.547C96.3734 213.596 96.5395 213.664 96.6674 213.75C96.7952 213.835 96.8944 213.928 96.9648 214.029C97.0352 214.13 97.0839 214.232 97.1109 214.334C97.1379 214.436 97.1514 214.528 97.1514 214.61C97.1514 214.852 97.0868 215.058 96.9578 215.228C96.8287 215.398 96.6492 215.528 96.4192 215.617Z" fill="#FBFCFE"/>
<g filter="url(#filter2_d_0_2363)">
<path fill-rule="evenodd" clip-rule="evenodd" d="M-171.103 0.364258H-48.7141C-36.9763 0.364258 -27.4609 9.47488 -27.4609 20.7134V299.286C-27.4609 310.525 -36.9763 319.635 -48.7141 319.635H-171.103C-182.841 319.635 -192.357 310.525 -192.357 299.286V20.7134C-192.357 9.47488 -182.841 0.364258 -171.103 0.364258Z" fill="#213648"/>
</g>
</g>
<defs>
<filter id="filter0_d_0_2363" x="-53.4365" y="-54.6357" width="324.896" height="479.271" filterUnits="userSpaceOnUse" color-interpolation-filters="sRGB">
<feFlood flood-opacity="0" result="BackgroundImageFix"/>
<feColorMatrix in="SourceAlpha" type="matrix" values="0 0 0 0 0 0 0 0 0 0 0 0 0 0 0 0 0 0 127 0" result="hardAlpha"/>
<feOffset dx="25" dy="25"/>
<feGaussianBlur stdDeviation="40"/>
<feColorMatrix type="matrix" values="0 0 0 0 0.212302 0 0 0 0 0.32521 0 0 0 0 0.419299 0 0 0 0.300727 0"/>
<feBlend mode="normal" in2="BackgroundImageFix" result="effect1_dropShadow_0_2363"/>
<feBlend mode="normal" in="SourceGraphic" in2="effect1_dropShadow_0_2363" result="shape"/>
</filter>
<filter id="filter1_d_0_2363" x="22.4401" y="85.8799" width="142.64" height="152.24" filterUnits="userSpaceOnUse" color-interpolation-filters="sRGB">
<feFlood flood-opacity="0" result="BackgroundImageFix"/>
<feColorMatrix in="SourceAlpha" type="matrix" values="0 0 0 0 0 0 0 0 0 0 0 0 0 0 0 0 0 0 127 0" result="hardAlpha"/>
<feMorphology radius="10" operator="erode" in="SourceAlpha" result="effect1_dropShadow_0_2363"/>
<feOffset dx="10" dy="10"/>
<feGaussianBlur stdDeviation="12.5"/>
<feColorMatrix type="matrix" values="0 0 0 0 0.212302 0 0 0 0 0.32521 0 0 0 0 0.419299 0 0 0 0.25 0"/>
<feBlend mode="normal" in2="BackgroundImageFix" result="effect1_dropShadow_0_2363"/>
<feBlend mode="normal" in="SourceGraphic" in2="effect1_dropShadow_0_2363" result="shape"/>
</filter>
<filter id="filter2_d_0_2363" x="-247.357" y="-54.6357" width="324.896" height="479.271" filterUnits="userSpaceOnUse" color-interpolation-filters="sRGB">
<feFlood flood-opacity="0" result="BackgroundImageFix"/>
<feColorMatrix in="SourceAlpha" type="matrix" values="0 0 0 0 0 0 0 0 0 0 0 0 0 0 0 0 0 0 127 0" result="hardAlpha"/>
<feOffset dx="25" dy="25"/>
<feGaussianBlur stdDeviation="40"/>
<feColorMatrix type="matrix" values="0 0 0 0 0.212302 0 0 0 0 0.32521 0 0 0 0 0.419299 0 0 0 0.300727 0"/>
<feBlend mode="normal" in2="BackgroundImageFix" result="effect1_dropShadow_0_2363"/>
<feBlend mode="normal" in="SourceGraphic" in2="effect1_dropShadow_0_2363" result="shape"/>
</filter>
<linearGradient id="paint0_linear_0_2363" x1="6.32947" y1="0" x2="6.32947" y2="7.88732" gradientUnits="userSpaceOnUse">
<stop stop-color="#454545"/>
<stop offset="0.226279" stop-color="#999999"/>
<stop offset="1" stop-color="white"/>
</linearGradient>
<linearGradient id="paint1_linear_0_2363" x1="166.386" y1="54.8785" x2="160.331" y2="54.8785" gradientUnits="userSpaceOnUse">
<stop stop-color="white" stop-opacity="0.01"/>
<stop offset="0.222178" stop-color="#BABABA"/>
<stop offset="0.54678" stop-color="white" stop-opacity="0.01"/>
<stop offset="1" stop-color="white" stop-opacity="0.01"/>
</linearGradient>
<linearGradient id="paint2_linear_0_2363" x1="1.56344" y1="54.7117" x2="7.62812" y2="54.7117" gradientUnits="userSpaceOnUse">
<stop stop-color="white" stop-opacity="0.01"/>
<stop offset="0.222178" stop-color="#BABABA"/>
<stop offset="0.54678" stop-color="white" stop-opacity="0.01"/>
<stop offset="1" stop-color="white" stop-opacity="0.01"/>
</linearGradient>
<clipPath id="clip0_0_2363">
<rect width="768" height="3417" fill="white" transform="translate(-397 -2058)"/>
</clipPath>
</defs>
</svg>
